<svg width="13" height="12" viewBox="0 0 13 12" fill="none" xmlns="http://www.w3.org/2000/svg">
<path d="M8.40258 9.39203C8.78838 9.39203 9.13978 9.61397 9.30555 9.96234L9.89071 11.192C10.0565 11.5404 10.4079 11.7623 10.7937 11.7623H11.9394C12.0502 11.7623 12.1401 11.6725 12.1401 11.5616C12.1401 11.5323 12.1336 11.5034 12.1212 11.4768L7.06327 0.638275C6.94926 0.393957 6.70405 0.237793 6.43443 0.237793C6.16542 0.237793 5.92064 0.393275 5.8063 0.636781L0.716276 11.4766C0.703756 11.5033 0.697266 11.5324 0.697266 11.5619C0.697266 11.6726 0.787022 11.7623 0.897743 11.7623H2.05604C2.44389 11.7623 2.79675 11.5381 2.96143 11.1869L3.53332 9.96744C3.698 9.61629 4.05086 9.39203 4.43871 9.39203H8.40258ZM5.51572 5.30562C5.86644 4.50724 6.99971 4.50894 7.34803 5.30837L7.81957 6.3906C8.10737 7.05113 7.62332 7.79004 6.90282 7.79004H5.95587C5.23407 7.79004 4.75001 7.0487 5.04031 6.38785L5.51572 5.30562Z" fill="#004364"/>
</svg>
