<svg width="13" height="12" viewBox="0 0 13 12" fill="none" xmlns="http://www.w3.org/2000/svg">
<path d="M11.2234 2.00648L12.5465 2.00648V0.50708L8.34024 0.50708V2.00648L9.72401 2.00648V4.29273H5.76419C5.68269 3.96488 5.70871 3.63337 5.90112 3.35942L7.65893 0.856773C7.68495 0.819727 7.69891 0.775558 7.69891 0.730288C7.69891 0.608751 7.60039 0.510226 7.47885 0.510226H1.32719C0.90953 0.510226 0.57095 0.848806 0.57095 1.26647C0.57095 1.68413 0.90953 2.02271 1.32719 2.02271H3.23104C4.03151 2.02271 4.50754 2.91637 4.06091 3.58066L2.60066 5.75255C2.57816 5.78603 2.56614 5.82545 2.56614 5.86579C2.56614 5.99781 2.69026 6.09458 2.82023 6.07134C4.31276 5.80448 6.02553 6.40475 6.02553 8.18526C6.02553 9.52075 5.15666 10.3253 3.85335 10.3253C2.97523 10.3253 2.30049 9.98321 1.97628 9.32014C1.7861 8.93121 1.44775 8.58751 1.01481 8.58751C0.529857 8.58751 0.13439 9.00212 0.268702 9.4681C0.724611 11.0498 2.12964 11.9504 3.88553 11.9504C6.36343 11.9504 7.79545 10.2609 7.79545 8.16917C7.79545 7.35227 7.53353 6.55491 7.04437 5.94668H9.72401V11.7573H11.2234L11.2234 2.00648Z" fill="#004364"/>
</svg>
